<?xml version="1.0" encoding="utf-8"?>
<svg viewBox="0 0 500 500" width="500" height="500" xmlns="http://www.w3.org/2000/svg">
  <rect x="9.603" y="9.499" width="480.911" height="481.061" style="fill: rgb(58, 75, 46); fill-rule: evenodd; stroke: rgb(255, 255, 255); stroke-width: 19px;"/>
  <path d="M 252.006 396.97 C 233.606 396.97 216.539 393.503 200.806 386.57 C 185.073 379.637 171.473 370.17 160.006 358.17 L 180.006 334.97 C 189.339 344.837 200.339 352.77 213.006 358.77 C 225.673 364.77 238.806 367.77 252.406 367.77 C 269.739 367.77 283.206 363.837 292.806 355.97 C 302.406 348.103 307.206 337.77 307.206 324.97 C 307.206 318.303 306.073 312.637 303.806 307.97 C 301.539 303.303 298.473 299.303 294.606 295.97 C 290.739 292.637 286.139 289.637 280.806 286.97 C 275.473 284.303 269.739 281.503 263.606 278.57 L 226.006 262.17 C 219.873 259.503 213.606 256.303 207.206 252.57 C 200.806 248.837 195.073 244.303 190.006 238.97 C 184.939 233.637 180.806 227.303 177.606 219.97 C 174.406 212.637 172.806 204.17 172.806 194.57 C 172.806 184.703 174.873 175.503 179.006 166.97 C 183.139 158.437 188.873 151.037 196.206 144.77 C 203.539 138.503 212.206 133.637 222.206 130.17 C 232.206 126.703 243.206 124.97 255.206 124.97 C 270.939 124.97 285.473 127.97 298.806 133.97 C 312.139 139.97 323.473 147.77 332.806 157.37 L 314.806 178.97 C 306.806 171.237 297.939 165.17 288.206 160.77 C 278.473 156.37 267.473 154.17 255.206 154.17 C 240.539 154.17 228.739 157.57 219.806 164.37 C 210.873 171.17 206.406 180.57 206.406 192.57 C 206.406 198.97 207.673 204.37 210.206 208.77 C 212.739 213.17 216.139 217.037 220.406 220.37 C 224.673 223.703 229.339 226.637 234.406 229.17 C 239.473 231.703 244.673 234.037 250.006 236.17 L 287.206 252.17 C 294.673 255.37 301.739 259.037 308.406 263.17 C 315.073 267.303 320.806 272.103 325.606 277.57 C 330.406 283.037 334.206 289.437 337.006 296.77 C 339.806 304.103 341.206 312.57 341.206 322.17 C 341.206 332.57 339.139 342.303 335.006 351.37 C 330.873 360.437 324.939 368.37 317.206 375.17 C 309.473 381.97 300.139 387.303 289.206 391.17 C 278.273 395.037 265.873 396.97 252.006 396.97 Z" transform="matrix(1, 0, 0, 1, 0, 0)" style="fill: rgb(255, 255, 255); paint-order: stroke; stroke: rgb(255, 255, 255); white-space: pre;"/>
</svg>